<svg width="265" height="151" viewBox="0 0 265 151" fill="none" xmlns="http://www.w3.org/2000/svg">
<g filter="url(#filter0_d_71_9)">
<path d="M68 51.75V24.75L98.1149 3L125.971 5.25L142.534 17.25L150.063 30.75L153.828 63.75L160.603 80.25L199 114.75L192.977 129.75L175.661 132.75L159.098 138L150.063 132.75L144.793 116.25L131.241 97.5L92.8448 84L68 62.25V51.75Z" fill="#FF9E2C"/>
<path d="M97.097 85.5953C97.929 86.1713 98.345 86.8113 98.345 87.5153C98.345 88.1553 98.089 88.7313 97.577 89.2433C97.129 89.6913 96.521 90.0113 95.753 90.2033C94.985 90.3313 94.217 90.1393 93.449 89.6273C89.225 86.8113 84.905 83.8673 80.489 80.7953C76.073 77.6593 72.233 74.1073 68.969 70.1393C67.305 68.0913 66.185 66.0433 65.609 63.9953C65.033 61.9473 64.681 59.8673 64.553 57.7553C64.489 55.5793 64.457 53.3713 64.457 51.1313C64.521 48.8913 64.265 46.5553 63.689 44.1233C62.729 39.8993 62.633 36.0593 63.401 32.6033C64.169 29.1473 65.545 25.9473 67.529 23.0033C69.513 20.0593 71.977 17.3393 74.921 14.8433C77.865 12.3473 81.001 9.97929 84.329 7.73929C88.233 5.11529 92.553 3.22729 97.289 2.07529C102.025 0.923286 106.825 0.443287 111.689 0.635288C116.553 0.827282 121.321 1.69128 125.993 3.22728C130.729 4.69928 135.049 6.81128 138.953 9.56328C142.857 12.2513 146.185 15.5473 148.937 19.4513C151.689 23.2913 153.577 27.6753 154.601 32.6033C155.369 36.2513 155.817 40.0913 155.945 44.1233C156.137 48.0913 156.393 52.0593 156.713 56.0273C157.097 59.9953 157.737 63.8993 158.633 67.7393C159.529 71.5153 161.065 75.0353 163.241 78.2993C164.201 79.7073 165.289 80.9553 166.505 82.0433C167.785 83.1313 169.129 84.1553 170.537 85.1153C172.009 86.0753 173.449 87.0033 174.857 87.8993C176.329 88.7953 177.737 89.7233 179.081 90.6833C180.297 91.5793 181.417 92.5393 182.441 93.5633C183.529 94.5873 184.553 95.6433 185.513 96.7313C186.473 97.7553 187.433 98.8113 188.393 99.8993C189.353 100.923 190.377 101.947 191.465 102.971C192.617 103.995 193.737 104.923 194.825 105.755C195.977 106.587 197.033 107.451 197.993 108.347C199.017 109.179 199.913 110.171 200.681 111.323C201.449 112.411 202.025 113.755 202.409 115.355C203.113 118.235 203.017 121.019 202.121 123.707C201.289 126.459 199.817 128.827 197.705 130.811C196.361 132.091 194.985 132.987 193.577 133.499C192.169 134.075 190.729 134.491 189.257 134.747C187.785 135.003 186.281 135.195 184.745 135.323C183.209 135.451 181.641 135.771 180.041 136.283C178.569 136.795 177.225 137.403 176.009 138.107C174.793 138.811 173.577 139.451 172.361 140.027C171.145 140.667 169.833 141.211 168.425 141.659C167.081 142.107 165.545 142.267 163.817 142.139C160.809 142.011 158.089 141.243 155.657 139.835C153.225 138.427 151.081 136.539 149.225 134.171C148.329 132.955 147.625 131.707 147.113 130.427C146.601 129.147 146.185 127.835 145.865 126.491C145.545 125.147 145.225 123.771 144.905 122.363C144.649 121.019 144.297 119.675 143.849 118.331C142.505 114.363 140.617 111.003 138.185 108.251C135.817 105.435 133.065 103.099 129.929 101.243C126.857 99.3873 123.497 97.9153 119.849 96.8273C116.201 95.6753 112.457 94.7473 108.617 94.0433C107.721 93.8513 107.049 93.4353 106.601 92.7953C106.217 92.1553 106.057 91.5153 106.121 90.8753C106.249 90.1713 106.569 89.5953 107.081 89.1473C107.657 88.6353 108.425 88.4753 109.385 88.6673C114.953 89.6273 119.977 91.0033 124.457 92.7953C129.001 94.5233 133.001 96.7953 136.457 99.6113C139.977 102.427 142.953 105.851 145.385 109.883C147.817 113.915 149.769 118.651 151.241 124.091C152.009 127.035 153.097 129.563 154.505 131.675C155.977 133.851 158.313 135.451 161.513 136.475C162.793 136.859 164.009 136.955 165.161 136.763C166.313 136.571 167.401 136.219 168.425 135.707C169.513 135.259 170.569 134.715 171.593 134.075C172.617 133.435 173.609 132.827 174.569 132.251C175.721 131.611 176.873 131.195 178.025 131.003C179.177 130.811 180.329 130.683 181.481 130.619C182.633 130.555 183.785 130.459 184.937 130.331C186.089 130.267 187.273 130.043 188.489 129.659C190.729 128.891 192.457 127.771 193.673 126.299C194.953 124.827 195.753 123.163 196.073 121.307C196.393 119.515 196.233 117.659 195.593 115.739C195.017 113.883 194.025 112.123 192.617 110.459C191.721 109.435 190.633 108.603 189.353 107.963C188.137 107.259 187.049 106.459 186.089 105.563C184.809 104.411 183.625 103.195 182.537 101.915C181.449 100.571 180.265 99.3233 178.985 98.1713C177.385 96.6993 175.657 95.3233 173.801 94.0433C171.945 92.7633 170.089 91.4833 168.233 90.2033C166.441 88.9233 164.681 87.5793 162.953 86.1713C161.289 84.7633 159.817 83.1313 158.537 81.2753C157.385 79.6113 156.393 77.8193 155.561 75.8993C154.793 73.9153 154.121 71.8673 153.545 69.7553C152.969 67.6433 152.489 65.5313 152.105 63.4193C151.785 61.3073 151.497 59.2593 151.241 57.2753C150.857 53.8193 150.569 50.2993 150.377 46.7153C150.249 43.1313 149.897 39.6113 149.321 36.1553C148.745 32.6993 147.785 29.3713 146.441 26.1713C145.161 22.9713 143.209 20.0273 140.585 17.3393C137.577 14.2673 133.865 11.8353 129.449 10.0433C125.033 8.25128 120.425 7.09928 115.625 6.58728C110.889 6.07528 106.185 6.23528 101.513 7.06728C96.841 7.83529 92.745 9.30729 89.225 11.4833C86.153 13.4033 83.113 15.6113 80.105 18.1073C77.097 20.5393 74.473 23.2593 72.233 26.2673C70.697 28.3793 69.705 30.3633 69.257 32.2193C68.873 34.0113 68.777 35.8033 68.969 37.5953C69.225 39.3873 69.609 41.2433 70.121 43.1633C70.633 45.0193 71.049 47.0353 71.369 49.2113C71.625 50.7473 71.593 52.0913 71.273 53.2433C70.953 54.3313 70.729 55.6113 70.601 57.0833C70.409 59.0033 70.569 60.7313 71.081 62.2673C71.593 63.7393 72.297 65.1153 73.193 66.3953C74.153 67.6753 75.241 68.8913 76.457 70.0433C77.737 71.1313 79.017 72.1873 80.297 73.2113C82.985 75.4513 85.737 77.5953 88.553 79.6433C91.369 81.6913 94.217 83.6753 97.097 85.5953ZM112.361 58.1393C111.849 57.5633 111.657 56.8913 111.785 56.1233C111.913 55.2913 112.297 54.6833 112.937 54.2993C113.641 53.8513 114.377 53.7553 115.145 54.0113C115.913 54.2033 116.553 54.5873 117.065 55.1633C117.577 55.7393 118.217 56.1553 118.985 56.4113C119.817 56.6673 120.681 56.8593 121.577 56.9873C122.473 57.0513 123.337 57.0513 124.169 56.9873C125.065 56.9233 125.865 56.8273 126.569 56.6993C127.465 56.5713 128.169 56.7633 128.681 57.2753C129.257 57.7873 129.609 58.3953 129.737 59.0993C129.865 59.8033 129.737 60.4753 129.353 61.1153C128.969 61.7553 128.297 62.1393 127.337 62.2673C124.713 62.5873 122.025 62.4913 119.273 61.9793C116.521 61.4033 114.217 60.1233 112.361 58.1393ZM131.081 40.0913C130.121 41.5633 128.809 41.9473 127.145 41.2433C126.569 40.9233 126.057 40.4113 125.609 39.7073C125.161 38.9393 125.161 38.2033 125.609 37.4993C126.633 35.8993 127.913 34.7473 129.449 34.0433C131.049 33.2753 132.777 33.0193 134.633 33.2753C135.401 33.4033 136.041 33.7873 136.553 34.4273C137.129 35.0673 137.353 35.7713 137.225 36.5393C137.097 37.3713 136.681 37.9793 135.977 38.3633C135.337 38.6833 134.633 38.7793 133.865 38.6513C133.417 38.5873 132.905 38.6833 132.329 38.9393C131.817 39.1953 131.401 39.5793 131.081 40.0913ZM105.641 42.0113C105.065 42.5233 104.425 42.7793 103.721 42.7793C103.017 42.7793 102.313 42.5233 101.609 42.0113C101.097 41.6273 100.745 41.0193 100.553 40.1873C100.361 39.3553 100.553 38.6833 101.129 38.1713C102.537 36.9553 104.105 36.3153 105.833 36.2513C107.561 36.1873 109.161 36.7313 110.633 37.8833C111.209 38.3313 111.561 38.9393 111.689 39.7073C111.817 40.4753 111.625 41.1473 111.113 41.7233C110.601 42.3633 109.929 42.6833 109.097 42.6833C108.329 42.6193 107.625 42.3633 106.985 41.9153C106.921 41.8513 106.857 41.8193 106.793 41.8193H106.697C106.633 41.7553 106.601 41.7233 106.601 41.7233H106.505C106.249 41.7233 106.153 41.7233 106.217 41.7233C106.281 41.6593 106.217 41.6913 106.025 41.8193C105.961 41.8193 105.929 41.8513 105.929 41.9153C105.929 41.9153 105.897 41.9153 105.833 41.9153L105.641 42.0113ZM162.473 101.819C162.345 101.051 162.569 100.379 163.145 99.8033C163.721 99.2273 164.361 98.9393 165.065 98.9393C165.897 98.8753 166.601 99.0993 167.177 99.6113C167.753 100.123 168.137 100.763 168.329 101.531C168.777 103.451 168.585 105.403 167.753 107.387C167.369 108.219 166.793 108.699 166.025 108.827C165.321 108.955 164.617 108.859 163.913 108.539C163.273 108.219 162.729 107.739 162.281 107.099C161.897 106.395 161.897 105.659 162.281 104.891C162.537 104.379 162.665 103.899 162.665 103.451C162.665 102.939 162.601 102.395 162.473 101.819ZM140.969 85.9793C140.265 85.8513 139.625 85.4673 139.049 84.8273C138.537 84.1873 138.345 83.4833 138.473 82.7153C138.601 81.9473 138.985 81.3713 139.625 80.9873C140.329 80.6033 141.033 80.4753 141.737 80.6033C142.505 80.7313 143.241 80.8593 143.945 80.9873C144.713 81.0513 145.449 81.1473 146.153 81.2753C146.921 81.4033 147.561 81.7873 148.073 82.4273C148.649 83.0673 148.873 83.7713 148.745 84.5393C148.617 85.3713 148.201 85.9793 147.497 86.3633C146.857 86.6833 146.153 86.7793 145.385 86.6513C144.681 86.5233 143.945 86.4273 143.177 86.3633C142.473 86.2353 141.737 86.1073 140.969 85.9793ZM92.489 65.1473C92.873 64.3793 93.449 63.9313 94.217 63.8033C94.985 63.6753 95.689 63.7713 96.329 64.0913C97.033 64.4113 97.545 64.9233 97.865 65.6273C98.249 66.2673 98.249 66.9713 97.865 67.7393C97.097 69.4033 95.849 70.6833 94.121 71.5793C93.417 71.8993 92.681 71.9953 91.913 71.8673C91.145 71.7393 90.505 71.3553 89.993 70.7153C89.545 70.1393 89.353 69.4673 89.417 68.6993C89.481 67.8673 89.865 67.2593 90.569 66.8753C90.825 66.7473 91.049 66.6193 91.241 66.4913C91.433 66.3633 91.593 66.2673 91.721 66.2033C91.913 66.0113 92.041 65.8193 92.105 65.6273C92.233 65.4353 92.361 65.2753 92.489 65.1473ZM92.489 27.1313C91.721 27.1313 91.017 26.9073 90.377 26.4593C89.737 25.9473 89.353 25.2753 89.225 24.4433C89.097 23.7393 89.289 23.0993 89.801 22.5233C90.313 21.8833 90.953 21.5633 91.721 21.5633H95.081C95.849 21.5633 96.553 21.8193 97.193 22.3313C97.833 22.7793 98.217 23.4193 98.345 24.2513C98.473 24.9553 98.281 25.6273 97.769 26.2673C97.257 26.8433 96.617 27.1313 95.849 27.1313H92.489ZM121.289 23.5793C120.585 23.8993 119.849 23.8673 119.081 23.4833C118.313 23.0993 117.769 22.5553 117.449 21.8513C117.129 21.0833 117.129 20.3793 117.449 19.7393C117.833 19.0993 118.377 18.6513 119.081 18.3953L121.865 17.2433C122.569 16.9233 123.305 16.9873 124.073 17.4353C124.841 17.8193 125.385 18.3633 125.705 19.0673C126.025 19.7713 125.993 20.4433 125.609 21.0833C125.289 21.7233 124.777 22.2033 124.073 22.5233C123.561 22.6513 123.081 22.8113 122.633 23.0033C122.249 23.1953 121.801 23.3873 121.289 23.5793ZM106.889 41.8193H106.697H106.889Z" fill="black"/>
</g>
<defs>
<filter id="filter0_d_71_9" x="58.249" y="0.347282" width="149.216" height="149.984" filterUnits="userSpaceOnUse" color-interpolation-filters="sRGB">
<feFlood flood-opacity="0" result="BackgroundImageFix"/>
<feColorMatrix in="SourceAlpha" type="matrix" values="0 0 0 0 0 0 0 0 0 0 0 0 0 0 0 0 0 0 127 0" result="hardAlpha"/>
<feOffset dy="4"/>
<feGaussianBlur stdDeviation="2"/>
<feComposite in2="hardAlpha" operator="out"/>
<feColorMatrix type="matrix" values="0 0 0 0 0 0 0 0 0 0 0 0 0 0 0 0 0 0 0.25 0"/>
<feBlend mode="normal" in2="BackgroundImageFix" result="effect1_dropShadow_71_9"/>
<feBlend mode="normal" in="SourceGraphic" in2="effect1_dropShadow_71_9" result="shape"/>
</filter>
</defs>
</svg>
