<svg width="225" height="51" viewBox="0 0 225 51" fill="none" xmlns="http://www.w3.org/2000/svg">
<path d="M28.1182 0.659999H34.9042V49.496H28.1182V25.658H22.8982V36.736H0.336186V7.562H22.8982V17.48H28.1182V0.659999ZM45.8082 0.659999V49.496H38.9062V0.659999H45.8082ZM16.8662 15.044H6.48419V29.95H16.8662V15.044ZM91.5738 14.058V20.322H56.1938V1.82H64.2558V14.058H91.5738ZM95.9238 33.372H86.5278V49.496H79.7998V33.372H69.0118V49.496H61.5878V33.372H52.1918V26.18H95.9238V33.372ZM128.683 47.52H122.683V37.28C121.696 38.16 120.616 38.9067 119.443 39.52C118.27 40.1333 117.056 40.6533 115.803 41.08C114.55 41.48 113.283 41.8 112.003 42.04C110.723 42.28 109.496 42.4533 108.323 42.56C105.496 42.8533 102.67 42.88 99.8429 42.64V37.12C101.31 37.4133 102.83 37.56 104.403 37.56C106.003 37.5333 107.576 37.4267 109.123 37.24C110.696 37.0267 112.203 36.76 113.643 36.44C115.11 36.0933 116.43 35.7467 117.603 35.4C118.803 35.0267 119.83 34.6933 120.683 34.4C121.563 34.08 122.203 33.84 122.603 33.68V13.84H128.683V47.52ZM112.043 14.72C112.87 14.72 113.616 14.8667 114.283 15.16C114.95 15.4267 115.523 15.8133 116.003 16.32C116.483 16.8267 116.843 17.4133 117.083 18.08C117.35 18.7467 117.483 19.4533 117.483 20.2V25.64C117.483 27.32 116.963 28.6533 115.923 29.64C114.883 30.6 113.443 31.08 111.603 31.08H106.803C106.083 31.08 105.39 30.96 104.723 30.72C104.056 30.48 103.456 30.1467 102.923 29.72C102.416 29.2667 102.003 28.7333 101.683 28.12C101.39 27.5067 101.243 26.8133 101.243 26.04V20.2C101.243 19.4533 101.376 18.7467 101.643 18.08C101.936 17.4133 102.323 16.8267 102.803 16.32C103.31 15.8133 103.896 15.4267 104.563 15.16C105.256 14.8667 106.003 14.72 106.803 14.72H112.043ZM112.643 21.24C112.643 20.6 112.416 20.0667 111.963 19.64C111.536 19.1867 110.99 18.96 110.323 18.96H108.603C107.936 18.96 107.35 19.1867 106.843 19.64C106.336 20.0667 106.083 20.6 106.083 21.24V24.56C106.083 25.2267 106.336 25.7867 106.843 26.24C107.35 26.6667 107.936 26.88 108.603 26.88H110.323C110.99 26.88 111.536 26.6667 111.963 26.24C112.416 25.7867 112.643 25.2267 112.643 24.56V21.24ZM159.209 27.224H134.965V3.676H159.209V27.224ZM140.881 32.734H148.015V42.072H175.043V48.916H140.881V32.734ZM167.039 31.748V0.717998H174.463V31.748H167.039ZM141.867 10.346V20.67H152.307V10.346H141.867ZM220.431 40.042C220.431 41.5113 220.295 42.8453 220.025 44.044C219.793 45.2427 219.522 46.2867 219.213 47.176C219.019 47.7173 218.826 48.22 218.633 48.684C218.439 49.148 218.246 49.5927 218.053 50.018H210.919C211.576 48.742 212.079 47.4853 212.427 46.248C212.775 45.0493 213.026 43.986 213.181 43.058C213.335 41.9753 213.393 40.9507 213.355 39.984H185.457V33.314H220.431V40.042ZM224.839 29.544H180.817V22.874H198.855V16.9H206.917V22.874H224.839V29.544ZM219.329 0.717998V6.576H207.265C207.961 7.65867 208.773 8.62533 209.701 9.476C210.667 10.3267 211.673 11.0807 212.717 11.738C213.761 12.3953 214.824 12.956 215.907 13.42C217.028 13.884 218.091 14.2513 219.097 14.522V19.8C215.23 19.3747 211.963 18.408 209.295 16.9C206.665 15.392 204.384 13.536 202.451 11.332C201.445 12.5693 200.247 13.6907 198.855 14.696C197.463 15.6627 195.993 16.5327 194.447 17.306C192.939 18.0793 191.411 18.7367 189.865 19.278C188.357 19.8193 186.984 20.2447 185.747 20.554V14.812C187.061 14.3867 188.376 13.826 189.691 13.13C191.005 12.3953 192.185 11.6413 193.229 10.868C194.311 10.0947 195.201 9.32133 195.897 8.548C196.631 7.77466 197.076 7.11733 197.231 6.576H185.515V0.717998H219.329Z" fill="black"/>
</svg>
